Coordinates
version=1
nRows=24
nColumns=24
inDegrees=yes

Units are S.I. units (second, meters, Newtons, ...)
Angles are in degrees.

endheader
time	pelvis_tilt	pelvis_list	pelvis_rotation	pelvis_tx	pelvis_ty	pelvis_tz	hip_flexion_r	hip_adduction_r	hip_rotation_r	knee_angle_r	ankle_angle_r	subtalar_angle_r	mtp_angle_r	hip_flexion_l	hip_adduction_l	hip_rotation_l	knee_angle_l	ankle_angle_l	subtalar_angle_l	mtp_angle_l	lumbar_extension	lumbar_bending	lumbar_rotation
      0.91616667	     -1.45924589	     -1.54120844	     -0.74105636	     -0.17745699	      0.97752271	      0.30749997	    -10.02066220	      5.29022418	     -5.97412766	    -12.31029573	     15.41698192	     -1.42454303	     -1.03708620	     25.77404110	      0.39068912	     -1.55775739	     -8.27742000	     -0.91922338	     -4.41600274	     -2.70778725	     -1.45846121	      5.39574997	      7.78663921
      0.92033333	     -1.51779437	     -1.46207692	     -0.77954309	     -0.17144123	      0.97700242	      0.30717258	     -9.90177620	      5.12681789	     -5.91597482	    -13.16041471	     15.49073707	     -1.46975346	     -1.00580738	     25.66937836	      0.56113870	     -1.39915032	     -8.25813387	     -1.22937905	     -4.55714671	     -2.51461320	     -1.33883215	      5.31549062	      7.81031520
      0.92450000	     -1.56190984	     -1.35950486	     -0.80081333	     -0.16537758	      0.97654735	      0.30685467	     -9.78613753	      4.94433516	     -5.84717249	    -14.02937783	     15.47113339	     -1.58834025	     -0.98299176	     25.57287847	      0.75244486	     -1.28975306	     -8.35692991	     -1.52923916	     -4.60741103	     -2.41684782	     -1.23585843	      5.19049749	      7.80077578
      0.92866667	     -1.57218888	     -1.22438536	     -0.83477138	     -0.15929968	      0.97618079	      0.30645367	     -9.63435491	      4.69236242	     -5.89298372	    -15.04546726	     15.54374412	     -1.37357596	     -0.34081717	     25.38320837	      0.99404624	     -1.02378049	     -8.40023015	     -1.92635739	     -5.03811279	     -0.45152317	     -1.16978442	      5.06112460	      7.78975653
      0.93283333	     -1.70104039	     -1.14994285	     -0.85806326	     -0.15326710	      0.97571655	      0.30613632	     -9.34823941	      4.54488495	     -5.74441116	    -16.05280547	     15.44984204	     -1.64059451	     -0.28163110	     25.38684489	      1.15694498	     -0.81477546	     -8.62091922	     -2.28913225	     -5.19217888	     -0.34967054	     -0.95524232	      4.99232253	      7.80762689
      0.93700000	     -1.78413131	     -1.04472712	     -0.87674847	     -0.14720942	      0.97534755	      0.30577565	     -9.06667269	      4.34926033	     -5.65966278	    -17.14476994	     15.35458218	     -1.78608922	     -0.18189186	     25.33324797	      1.35815459	     -0.58252528	     -8.87515282	     -2.65327714	     -5.48777130	     -0.21975158	     -0.80034622	      4.88163556	      7.80261292
      0.94116667	     -1.85299974	     -0.91858975	     -0.88798599	     -0.14112454	      0.97504296	      0.30539703	     -8.76276852	      4.12449855	     -5.60311511	    -18.30111222	     15.20381831	     -1.88330714	     -0.03516129	     25.25516571	      1.58347293	     -0.32964476	     -9.14980827	     -3.02736610	     -5.82406910	     -0.06669471	     -0.65163937	      4.74052091	      7.78332033
      0.94533333	     -1.92012923	     -0.77102880	     -0.90044147	     -0.13502723	      0.97478333	      0.30500179	     -8.41815223	      3.86922015	     -5.55504446	    -19.53049616	     14.99468090	     -1.96892705	      0.13185413	     25.17155827	      1.82886505	     -0.07483529	     -9.45023608	     -3.40556978	     -6.15976723	      0.07548247	     -0.50760452	      4.58358481	      7.75130856
      0.94950000	     -1.99647952	     -0.63306196	     -0.90376872	     -0.12893568	      0.97453903	      0.30459403	     -8.02120637	      3.62031667	     -5.52585027	    -20.82579418	     14.70469421	     -2.05375237	      0.33885413	     25.11528707	      2.06498854	      0.17575136	     -9.81107738	     -3.76033911	     -6.53966312	      0.22149616	     -0.34895342	      4.42754194	      7.71006056
      0.95366667	     -2.03712635	     -0.44979811	     -0.88451617	     -0.12282719	      0.97435343	      0.30411044	     -7.61847460	      3.29567825	     -5.61275350	    -22.18339671	     14.26651095	     -1.96231089	      4.52560894	     25.02997721	      2.35565224	      0.40537365	    -10.20677508	     -4.12489945	     -6.96162920	      2.63954569	     -0.24358867	      4.22581960	      7.62273107
      0.95783333	     -2.10755634	     -0.29270524	     -0.88687581	     -0.11674251	      0.97420937	      0.30371189	     -7.15454679	      3.02738207	     -5.53292233	    -23.58156727	     13.79358817	     -2.20250624	      4.57991470	     24.96801992	      2.60409776	      0.63594624	    -10.60551021	     -4.44501100	     -7.33048947	      2.63389792	     -0.09231132	      4.04591716	      7.59754567
      0.96200000	     -2.18669560	     -0.13021832	     -0.86830852	     -0.11071217	      0.97404111	      0.30324244	     -6.62277007	      2.73457297	     -5.53319984	    -25.07288426	     13.29870415	     -2.25712390	      4.72438767	     24.94857551	      2.86963734	      0.87788054	    -11.07945398	     -4.73618673	     -7.82676161	      2.63114906	      0.05188380	      3.86940747	      7.54330423
      0.96616667	     -2.21343219	      0.08904502	     -0.83380336	     -0.10463195	      0.97396770	      0.30270503	     -6.10644895	      2.35277537	     -5.62928679	    -26.63350740	     12.71936410	     -2.19188735	      5.41977393	     24.83142997	      3.20448621	      1.16127331	    -11.48197628	     -5.03161400	     -8.36941836	      2.63095820	      0.14570435	      3.61772281	      7.47250934
      0.97033333	     -2.28782015	      0.26458761	     -0.82820267	     -0.09860649	      0.97387614	      0.30227785	     -5.50311996	      2.03707687	     -5.60241697	    -28.22015325	     11.96059829	     -2.28851937	      5.59103237	     24.81224319	      3.45939265	      1.29482723	    -11.98882870	     -5.16524431	     -8.62659304	      2.62860978	      0.29937284	      3.42317131	      7.38947780
      0.97450000	     -2.36909525	      0.46563194	     -0.79493719	     -0.09263364	      0.97376692	      0.30175006	     -4.84044268	      1.67266029	     -5.64733819	    -29.88729984	     11.20467732	     -2.26759551	      5.91841492	     24.81292952	      3.76312857	      1.48362810	    -12.52176519	     -5.32574780	     -9.11882235	      2.61588580	      0.44194450	      3.19985203	      7.30437526
      0.97866667	     -2.38217185	      0.71418888	     -0.76170756	     -0.08661309	      0.97377264	      0.30120339	     -4.22449802	      1.23038160	     -5.74581121	    -31.57424975	     10.21203944	     -2.29711294	     12.00942113	     24.70220549	      4.11268262	      1.65887108	    -12.99054780	     -5.38375444	     -9.49367094	      2.30782894	      0.51715888	      2.91566136	      7.19662940
      0.98283333	     -2.43269074	      0.93688971	     -0.72740257	     -0.08066275	      0.97376167	      0.30070006	     -3.53040419	      0.83282497	     -5.77749352	    -33.30971225	      9.22773378	     -2.35487556	     12.05617702	     24.65882663	      4.42591833	      1.78724352	    -13.51202753	     -5.40609012	     -9.82799400	      2.30105126	      0.62475365	      2.66393940	      7.11381765
      0.98700000	     -2.46141445	      1.18293602	     -0.68872647	     -0.07474378	      0.97377141	      0.30016790	     -2.82270645	      0.39388303	     -5.83285937	    -35.09010151	      8.18571286	     -2.33744823	     12.16949738	     24.58289678	      4.76677737	      1.92220285	    -14.01792021	     -5.36387223	    -10.18000509	      2.28255662	      0.70362808	      2.38409178	      7.01137457
      0.99116667	     -2.46675669	      1.44834286	     -0.65142167	     -0.06882027	      0.97384867	      0.29964432	     -2.11384495	     -0.07569671	     -5.89372860	    -36.89275205	      7.05267847	     -2.36143665	     12.29160988	     24.46230804	      5.12080735	      2.01880479	    -14.48861581	     -5.25557489	    -10.44500472	      2.26082574	      0.76502108	      2.08263517	      6.90864601
      0.99533333	     -2.50161651	      1.71924926	     -0.60699152	     -0.06297716	      0.97388186	      0.29910669	     -1.34175504	     -0.55118480	     -5.92795007	    -38.71719621	      5.86671987	     -2.34411874	     12.48804971	     24.39194201	      5.48531565	      2.12481110	    -14.99634362	     -5.11803584	    -10.77312722	      2.21925969	      0.83509795	      1.77180842	      6.79589446
      0.99950000	     -2.50242361	      2.00118915	     -0.56436906	     -0.05713747	      0.97398071	      0.29858454	     -0.58445282	     -1.04827571	     -5.97179100	    -40.55407963	      4.61679933	     -2.39261976	     12.66966177	     24.25725591	      5.85278172	      2.19383939	    -15.44838732	     -4.90967804	    -10.99379857	      2.17700567	      0.87948100	      1.45557930	      6.68480305
      1.00366667	     -2.46800281	      2.30975095	     -0.52952806	     -0.05132533	      0.97415500	      0.29811458	      0.15045804	     -1.56314815	     -5.96072200	    -42.38608037	      3.37347610	     -2.50022149	     12.77364698	     24.06734869	      6.23997203	      2.25005559	    -15.87133394	     -4.60540204	    -11.13729983	      2.15186438	      0.86697799	      1.07513697	      6.57728900
      1.00783333	     -2.49214557	      2.58747224	     -0.47445566	     -0.04560252	      0.97423730	      0.29758219	      0.97638218	     -2.05874929	     -5.98556956	    -44.22664285	      2.03732154	     -2.54249824	     12.95677049	     23.95623470	      6.60440033	      2.29903580	    -16.31144613	     -4.38486899	    -11.38173054	      2.09228495	      0.91676693	      0.77924261	      6.45646733
      1.01200000	     -2.44660161	      2.91238201	     -0.44197370	     -0.03986254	      0.97445738	      0.29713047	      1.73754000	     -2.59599241	     -5.95504589	    -46.05359405	      0.77942593	     -2.68588338	     13.05301976	     23.71720733	      7.00237744	      2.32936236	    -16.65520777	     -4.02454346	    -11.49289536	      2.05773246	      0.89078169	      0.39207449	      6.34310268
